<svg id="Layer_1" data-name="Layer 1" xmlns="http://www.w3.org/2000/svg" viewBox="0 0 43.2 47.74"><title>boiler</title><path d="M9.29,22.11A56.14,56.14,0,0,0,4.18,26L4.12,26a56.58,56.58,0,0,1,5.09-3.91Z" transform="translate(-4.12 -1.33)"/><path d="M4.18,26c1.87,1.21,3.27,1.52,5.61,2.54l-.06.06c-2.34-1-3.75-1.33-5.6-2.54Z" transform="translate(-4.12 -1.33)"/><path d="M33.06,13.78l-1.16.51c0-.36,0-.54,0-.9Z" transform="translate(-4.12 -1.33)"/><path d="M33.06,13.78l-1.16.51c0-.36,0-.54,0-.9Z" transform="translate(-4.12 -1.33)"/><path d="M31.63,18.36c2.26-1,3.65-1.37,6-3.43-1.35,12.1,0,22,0,34.14h-.79c-9.49-5.9-18.16-13.75-27.05-20.49-2.34-1-3.74-1.33-5.61-2.54a56.14,56.14,0,0,1,5.11-3.93C20,15.56,32,9.26,41.71,1.33l.06,0a10.39,10.39,0,0,1,4.51,2.86,16.81,16.81,0,0,0-5,3.35c-3.86,3.3-5.11,4.82-8.21,6.22l-1.15-.39c0,.36,0,.54,0,.9-6.81,2.86-8.65,2.64-17.06,9.76,8.46,4.48,10.34,11.5,17.07,15.46,0-6-1-8.66-.77-14.93-2.47,1.29-3.78,2.65-6.81,4.71-1.61-1.78-2.42-2.87-4-4.75C24.94,22,27,20.33,31.63,18.36Z" transform="translate(-4.12 -1.33)"/><path d="M47.31,7.07a16.59,16.59,0,0,0-.79,5c-2.29,1.71-3.36,3.29-6,5.83.25-2.5.18-3.79.36-6.34C43.41,9,45.17,7.19,47.31,7.07Z" transform="translate(-4.12 -1.33)"/></svg>